<?xml version="1.0" standalone="no"?>
<!DOCTYPE svg PUBLIC "-//W3C//DTD SVG 20010904//EN"
 "http://www.w3.org/TR/2001/REC-SVG-20010904/DTD/svg10.dtd">
<svg version="1.0" xmlns="http://www.w3.org/2000/svg"
 width="300.000000pt" height="169.000000pt" viewBox="0 0 300.000000 169.000000"
 preserveAspectRatio="xMidYMid meet">
<metadata>
Created by potrace 1.10, written by Peter Selinger 2001-2011
</metadata>
<g transform="translate(0.000000,169.000000) scale(0.100000,-0.100000)"
fill="#000000" stroke="none">
<path d="M61 1561 c-1 -110 -3 -132 -15 -128 -19 7 -51 -17 -42 -31 4 -7 20
-12 36 -12 28 0 28 1 34 73 3 39 2 108 -3 152 -8 80 -8 79 -10 -54z m-1 -151
c0 -5 -11 -10 -25 -10 -14 0 -25 5 -25 10 0 6 11 10 25 10 14 0 25 -4 25 -10z"/>
<path d="M100 1680 c-9 -6 -10 -10 -3 -10 6 0 15 5 18 10 8 12 4 12 -15 0z"/>
<path d="M198 1671 c-7 -12 -18 -21 -25 -21 -7 0 -13 -4 -13 -10 0 -5 3 -9 8
-9 40 7 42 2 44 -108 1 -87 2 -97 7 -53 5 41 8 49 12 30 6 -22 6 -21 8 8 0 18
-3 31 -8 28 -5 -3 -8 5 -8 18 0 18 4 23 16 19 13 -4 13 -2 -1 7 -10 6 -18 23
-18 40 0 15 -6 31 -12 33 -10 4 -9 8 2 16 8 5 11 13 8 16 -4 4 -13 -2 -20 -14z"/>
<path d="M324 1676 c-16 -11 -20 -23 -17 -48 8 -85 9 -118 1 -118 -4 0 -8 -5
-8 -10 0 -7 6 -7 20 0 11 6 20 8 20 4 0 -3 6 -2 13 4 7 6 18 7 27 2 10 -6 3
-11 -26 -19 -38 -11 -88 -41 -68 -41 5 0 27 9 49 20 22 11 47 20 57 20 21 0
33 17 16 23 -16 5 -10 12 20 22 22 6 22 5 10 -17 -7 -12 -16 -25 -19 -28 -17
-14 -47 -74 -42 -86 3 -8 -1 -14 -10 -14 -8 0 -34 -9 -58 -20 -24 -11 -52 -20
-61 -20 -16 0 -15 4 4 36 24 42 29 105 10 124 -11 10 -13 6 -11 -21 1 -19 -5
-48 -14 -66 -9 -18 -17 -43 -17 -56 0 -19 -6 -26 -27 -30 -16 -3 -29 -1 -31 4
-2 5 -13 9 -25 9 -12 0 -29 5 -37 11 -11 8 1 9 46 5 49 -4 61 -3 61 9 0 9 -10
15 -24 15 -23 0 -23 2 -23 103 0 62 -4 96 -9 87 -5 -8 -8 -57 -7 -107 l2 -93
-75 -1 c-42 -1 -65 -4 -51 -6 13 -3 30 -12 37 -21 12 -15 12 -15 6 2 -4 14 -2
17 8 14 8 -3 13 -10 12 -16 -2 -7 4 -9 14 -5 12 5 14 3 8 -7 -5 -8 -4 -11 3
-6 15 9 23 -8 24 -53 0 -48 24 -63 38 -25 13 33 13 33 -10 27 -11 -3 -20 0
-20 6 0 6 6 11 13 11 8 0 7 4 -3 10 -9 6 -10 10 -3 10 6 0 15 -4 18 -10 3 -6
13 -6 23 -1 9 5 28 13 42 19 100 39 173 67 220 83 83 29 234 91 244 100 9 8
-131 -40 -233 -80 -49 -20 -53 -20 -46 -4 4 10 11 32 16 50 6 18 15 35 21 39
8 5 9 2 5 -9 -3 -9 -3 -16 1 -16 4 1 23 1 42 0 28 -1 32 -4 20 -12 -13 -9 -13
-10 0 -6 24 6 23 43 -3 71 -26 28 -53 34 -60 14 -5 -16 -45 17 -58 47 -7 17
-8 16 -8 -8 -1 -16 3 -26 8 -23 5 3 14 0 20 -8 9 -10 6 -17 -14 -30 -25 -17
-45 -14 -45 5 0 6 5 7 10 4 6 -4 10 11 10 39 0 26 5 46 13 49 10 4 10 6 0 6
-7 1 -13 12 -13 26 0 27 -15 34 -24 10 -3 -8 -2 -15 2 -15 9 0 6 -86 -3 -117
-12 -39 -28 -26 -22 17 4 29 1 42 -9 48 -9 5 -12 15 -8 26 5 14 9 15 15 4 6
-9 9 -9 9 -1 0 6 -5 15 -11 18 -6 5 -4 12 8 21 24 18 13 18 -13 0z m184 -148
c17 -17 15 -25 -5 -25 -20 0 -43 15 -43 28 0 13 34 11 48 -3z m-348 -262 c0
-3 -4 -8 -10 -11 -5 -3 -10 -1 -10 4 0 6 5 11 10 11 6 0 10 -2 10 -4z"/>
<path d="M392 1670 c0 -14 2 -19 5 -12 2 6 2 18 0 25 -3 6 -5 1 -5 -13z"/>
<path d="M428 1683 c15 -6 16 -55 0 -71 -9 -9 -8 -16 7 -30 17 -15 18 -15 6 0
-7 9 -9 23 -5 29 5 9 10 7 16 -7 7 -15 7 -14 3 6 -2 14 -5 37 -5 53 0 19 -5
27 -17 26 -11 0 -13 -3 -5 -6z"/>
<path d="M473 1635 c0 -33 2 -45 4 -27 2 18 2 45 0 60 -2 15 -4 0 -4 -33z"/>
<path d="M501 1674 c0 -11 3 -14 6 -6 3 7 2 16 -1 19 -3 4 -6 -2 -5 -13z"/>
<path d="M568 1628 c0 -35 0 -74 1 -88 1 -20 -1 -22 -9 -10 -6 9 -10 10 -10 3
0 -6 4 -14 10 -18 5 -3 6 -13 3 -22 -4 -9 -2 -14 3 -11 36 22 109 49 127 48
44 -4 47 -1 47 49 0 31 5 53 15 61 19 16 19 26 0 34 -29 11 -81 -18 -132 -73
-29 -31 -52 -50 -53 -43 0 6 9 21 20 32 11 11 16 20 10 20 -5 0 -10 18 -10 40
0 66 -20 45 -22 -22z m162 -14 c0 -27 -4 -43 -10 -39 -5 3 -10 -1 -10 -10 0
-11 -5 -15 -14 -12 -8 3 -30 -3 -50 -13 -57 -29 -66 -31 -66 -15 0 27 106 124
148 134 1 1 2 -20 2 -45z"/>
<path d="M641 1675 c-5 -5 -14 -21 -20 -35 l-12 -25 20 23 c11 12 32 29 48 37
l28 15 -28 -2 c-16 -1 -32 -7 -36 -13z"/>
<path d="M779 1673 c5 -10 19 -18 32 -18 12 0 25 -7 30 -15 25 -47 36 -80 29
-85 -13 -8 28 -83 54 -101 14 -8 53 -19 88 -24 82 -12 118 -47 118 -115 0 -41
-3 -47 -39 -71 -78 -51 -272 -103 -388 -104 -56 0 -93 41 -93 106 0 42 3 46
60 90 80 63 93 84 84 139 -6 45 -20 58 -30 30 -3 -8 -22 -19 -42 -26 -21 -6
-61 -20 -89 -31 l-53 -19 2 -262 3 -262 2 255 c2 156 7 258 14 265 7 7 9 -80
8 -273 -1 -206 2 -286 11 -297 7 -8 10 -20 8 -26 -5 -14 -38 -21 -38 -8 0 4
-6 6 -14 3 -11 -4 -13 0 -9 15 4 17 8 19 19 10 23 -19 16 -2 -9 22 -17 17 -18
21 -4 16 20 -7 23 8 3 16 -16 6 -56 -2 -57 -12 -4 -34 -11 -57 -19 -59 -6 -2
-10 -10 -10 -19 0 -10 6 -12 23 -8 17 6 19 5 10 -5 -8 -8 -9 -20 -3 -36 13
-34 -7 -40 -34 -11 l-24 25 -11 -24 c-6 -14 -11 -31 -11 -39 0 -20 19 -19 26
0 4 8 10 15 15 15 4 0 5 -7 2 -17 -5 -12 -3 -14 8 -9 8 4 3 -2 -11 -13 -29
-24 -15 -28 18 -5 26 18 27 15 8 -21 -8 -15 -12 -33 -10 -40 3 -7 1 -16 -5
-20 -6 -3 -11 2 -11 12 -1 10 -9 -4 -20 -30 -10 -27 -23 -54 -28 -60 -8 -9 1
-11 34 -8 32 2 44 7 44 19 0 34 19 -5 24 -50 5 -39 3 -48 -9 -48 -20 0 -19 -3
10 -46 14 -20 25 -44 25 -54 0 -35 -14 -28 -36 18 -31 65 -44 78 -81 86 -21 5
-30 12 -27 21 4 10 12 11 31 4 28 -10 90 -12 80 -2 -4 3 -20 8 -36 9 -16 2
-41 8 -55 14 -26 9 -27 13 -22 57 l5 48 -10 -40 c-5 -22 -21 -57 -36 -77 -27
-40 -33 -82 -14 -101 9 -9 10 -3 5 20 -5 23 0 41 16 67 34 56 36 48 14 -39 -4
-16 -3 -17 5 -5 6 8 11 10 11 4 0 -6 14 -9 33 -8 l32 3 -32 -11 c-18 -6 -33
-15 -33 -20 0 -5 4 -6 10 -3 6 3 10 -1 10 -9 0 -20 -9 -20 -32 1 -16 15 -18
15 -13 1 7 -18 -10 -34 -20 -18 -4 6 -10 8 -14 6 -4 -3 -19 17 -33 45 -15 27
-28 44 -31 37 -3 -7 -6 -2 -6 12 -1 20 -3 22 -11 10 -7 -11 -8 -5 -4 20 4 28
3 32 -6 20 -9 -12 -10 1 -5 55 3 38 10 74 15 80 5 6 5 17 0 25 -6 10 -10 2
-15 -26 -11 -68 -14 -71 -11 -11 2 37 -1 54 -7 48 -11 -11 -4 -175 8 -204 7
-17 6 -17 -23 0 l-30 17 -1 129 c-1 89 2 134 11 144 7 8 -3 6 -24 -7 -23 -13
-39 -17 -43 -10 -8 13 2 30 19 30 8 0 11 11 8 33 -5 35 13 28 20 -8 4 -19 4
-18 10 3 5 18 0 25 -23 37 -16 9 -29 23 -29 31 0 14 2 14 16 3 15 -12 16 -11
9 11 -4 14 -8 109 -9 212 -1 145 -4 190 -15 200 -8 7 -11 8 -8 2 4 -7 -3 -15
-16 -19 -14 -4 -17 -8 -9 -12 7 -3 19 0 26 6 11 9 14 6 14 -14 0 -14 -4 -25
-9 -25 -5 0 -9 -5 -9 -11 0 -5 6 -7 13 -4 6 4 3 -1 -7 -9 -12 -10 -15 -16 -7
-16 11 0 12 -30 8 -147 -5 -137 -7 -148 -26 -157 -24 -11 -27 -29 -7 -45 11
-9 15 -9 18 0 2 7 8 6 17 -5 8 -9 9 -16 3 -16 -5 0 -8 -9 -5 -20 5 -21 -11
-28 -22 -10 -7 12 -25 4 -25 -11 0 -6 6 -7 13 -3 6 4 9 3 4 -1 -4 -5 0 -16 9
-26 9 -10 17 -40 19 -71 1 -29 5 -66 9 -83 3 -16 -10 20 -30 80 -19 61 -37
116 -39 123 -6 17 -35 15 -35 -2 0 -8 6 -17 13 -19 10 -4 10 -6 0 -6 -7 -1
-13 -5 -13 -11 0 -5 6 -9 13 -7 7 1 12 -7 11 -20 0 -12 3 -20 8 -17 4 3 8 -2
8 -11 0 -16 70 -258 90 -309 12 -31 5 -36 -59 -41 -61 -4 -71 -10 -71 -39 l0
-24 68 16 c68 16 135 20 184 12 15 -3 28 -1 30 5 2 5 -10 9 -26 10 -25 0 -34
8 -61 54 -17 29 -35 51 -40 50 -19 -8 -40 106 -37 199 5 139 22 111 22 -37 l0
-129 30 -12 c45 -19 78 -47 107 -92 24 -39 26 -40 69 -35 41 4 45 3 51 -22 9
-41 31 -79 67 -119 19 -20 34 -40 35 -44 14 -76 31 -94 31 -33 0 31 2 34 17
24 22 -13 28 -99 7 -99 -7 0 -15 7 -17 15 -4 11 -4 10 -3 -2 1 -10 11 -19 23
-21 13 -2 24 -12 26 -25 3 -12 3 4 2 35 -2 48 1 60 20 78 20 19 22 30 20 103
-1 56 -7 93 -19 116 -16 29 -21 33 -51 29 -30 -3 -35 -1 -39 22 -7 32 -1 126
8 123 3 -2 38 -3 77 -3 50 0 68 -3 63 -12 -5 -7 -3 -8 7 -3 20 13 48 13 52 1
3 -6 3 -39 1 -74 -3 -44 -1 -62 8 -62 7 0 3 -7 -9 -15 -18 -13 -24 -13 -50 0
-16 8 -38 24 -48 35 -18 20 -59 27 -69 12 -3 -5 8 -6 24 -4 23 3 31 -1 44 -26
8 -16 13 -32 10 -35 -3 -3 0 -23 7 -45 9 -31 9 -52 1 -84 -8 -29 -8 -44 -1
-47 6 -2 3 -11 -6 -21 -21 -23 -35 -84 -24 -101 5 -8 9 -12 10 -9 5 31 8 41
18 57 9 16 11 16 12 -7 1 -14 1 -30 0 -37 -1 -7 8 -10 25 -7 20 4 27 0 31 -16
4 -15 14 -20 37 -20 24 0 36 8 55 35 18 27 27 33 37 25 7 -7 62 -10 139 -9 69
0 129 -2 132 -5 10 -9 25 -7 19 3 -3 4 10 1 29 -7 35 -16 35 -16 13 -30 -18
-10 -18 -12 -3 -6 11 4 47 11 80 14 57 7 58 7 14 8 -46 2 -99 20 -99 35 0 5 9
22 21 38 14 20 27 28 39 24 9 -3 33 -6 53 -7 31 -1 37 -5 40 -27 3 -22 4 -20
6 8 1 27 4 32 19 26 35 -16 75 -17 135 -5 34 7 71 14 81 16 10 2 34 8 52 14
19 6 38 9 44 5 24 -15 104 52 218 180 34 39 58 77 67 109 20 67 20 66 -22 115
-34 40 -39 43 -75 37 -38 -6 -39 -5 -32 16 14 46 44 97 69 116 15 12 21 22 13
24 -6 2 -8 10 -4 17 10 16 86 71 98 71 5 0 -4 -24 -21 -54 -28 -48 -31 -62
-31 -135 0 -44 3 -81 8 -81 4 0 6 35 4 77 -3 71 0 83 28 135 17 31 38 59 47
62 10 4 31 -9 62 -39 25 -25 52 -47 61 -50 8 -3 27 -22 41 -43 29 -40 89 -172
89 -194 0 -7 10 -38 21 -68 19 -49 30 -86 44 -144 12 -49 28 -86 38 -86 8 0 7
4 -1 12 -7 7 -12 23 -12 38 0 28 -28 129 -57 205 -18 47 -19 84 -18 633 0 320
-3 582 -6 582 -4 0 -6 -257 -5 -571 l1 -571 -31 68 c-31 68 -36 123 -13 148
14 15 11 76 -3 76 -9 0 -10 3 -2 8 14 10 19 206 5 197 -7 -4 -11 4 -11 22 0
22 2 25 10 13 7 -11 10 -3 10 28 0 32 -3 41 -12 36 -10 -6 -10 -4 0 7 6 7 12
20 11 28 0 11 -3 10 -9 -4 -7 -18 -4 114 4 173 2 12 -1 22 -5 22 -14 0 -10 38
4 43 6 3 7 6 1 6 -7 1 -10 45 -8 136 2 83 0 135 -6 135 -13 0 -13 4 -11 -530
2 -459 2 -465 -17 -435 -10 17 -41 48 -68 70 -27 22 -55 45 -62 52 -31 30
-111 2 -169 -59 -17 -18 -45 -60 -62 -93 -19 -36 -31 -52 -31 -39 0 11 18 50
40 87 22 36 40 72 40 78 0 7 -20 -20 -45 -61 -24 -41 -45 -84 -45 -95 0 -43
-47 -60 -82 -28 -22 20 -24 11 -2 -11 21 -22 70 -20 83 1 6 10 11 14 11 9 0
-10 -41 -128 -47 -136 -8 -9 -23 25 -23 52 0 17 -8 31 -19 38 -20 10 -24 20
-36 77 -6 31 -2 37 80 115 48 46 92 92 97 103 6 11 -15 -8 -47 -42 -43 -48
-63 -63 -84 -63 -15 0 -36 -9 -46 -20 -25 -27 -28 -20 -10 23 17 42 18 47 7
47 -5 0 -15 -22 -24 -50 -15 -47 -11 -69 12 -55 5 3 10 -1 10 -10 0 -12 -4
-13 -18 -6 -10 5 -33 8 -52 7 -35 -3 -74 19 -64 35 3 5 -6 9 -20 9 -29 0 -44
19 -25 31 7 4 10 12 5 16 -5 4 -11 2 -13 -4 -3 -9 -10 -10 -24 -3 -15 9 -17
15 -9 30 18 33 11 52 -32 92 -23 21 -37 39 -32 39 5 1 19 3 30 4 49 5 74 16
74 32 0 15 1 15 13 1 6 -9 28 -26 47 -37 19 -12 32 -21 27 -21 -14 0 22 -57
46 -73 50 -33 150 -17 186 29 14 18 27 25 40 21 14 -3 26 5 43 29 27 39 33 41
48 15 15 -29 13 -37 -16 -50 -15 -6 -24 -14 -21 -17 3 -3 16 1 29 10 12 9 35
16 50 16 27 0 68 -30 68 -50 0 -5 5 -10 10 -10 6 0 9 51 8 138 l-2 137 -6
-130 c-6 -153 -20 -142 -20 16 0 85 3 111 14 115 11 4 14 47 13 237 l-1 232
-6 -180 c-7 -234 -20 -189 -20 69 0 110 -3 196 -7 193 -3 -4 -6 -82 -5 -174 2
-114 -1 -163 -8 -153 -5 8 -10 31 -11 50 -1 30 -2 31 -8 11 l-6 -23 -15 27
c-16 30 -69 68 -109 78 -26 7 -84 -14 -115 -41 -10 -9 -25 -32 -33 -50 -12
-30 -17 -33 -41 -27 -47 13 -86 12 -109 -2 -19 -13 -23 -12 -32 4 -10 17 -10
17 -11 -2 0 -15 -8 -21 -31 -22 -17 -1 -37 -10 -43 -18 -6 -9 -23 -18 -38 -19
-22 -3 -46 -22 -86 -71 -15 -18 -25 -50 -23 -72 1 -12 -9 -39 -23 -60 -30 -46
-43 -122 -26 -153 10 -18 14 -20 21 -9 7 11 9 10 9 -3 0 -19 0 -19 45 -23 17
-2 33 -3 36 -4 4 -1 18 -13 33 -28 24 -23 26 -32 20 -67 -3 -23 -15 -49 -25
-59 -25 -24 -25 -77 1 -105 11 -12 20 -24 20 -27 0 -3 -19 -5 -43 -5 -36 0
-49 6 -75 33 -18 18 -32 39 -32 47 0 12 -2 12 -9 2 -6 -11 -11 -10 -24 3 -10
10 -41 18 -79 21 -121 11 -157 28 -157 80 -1 40 -14 83 -30 99 -16 14 -21 13
-56 -15 -42 -33 -46 -35 -62 -19 -6 6 -17 8 -23 4 -9 -6 -9 -9 1 -15 7 -5 13
-16 14 -27 0 -10 5 -18 10 -19 6 0 8 8 7 19 -3 15 0 18 14 13 12 -5 25 3 45
26 37 45 53 29 54 -56 0 -46 3 -62 13 -59 20 8 14 -1 -28 -47 -22 -24 -37 -47
-32 -52 12 -12 39 0 47 20 5 14 4 14 -13 -1 -37 -33 -35 -16 2 22 37 38 38 38
74 25 20 -7 55 -14 77 -14 l40 -2 -32 -13 c-36 -16 -100 -71 -67 -58 10 4 39
21 64 37 25 17 54 29 65 27 31 -5 88 -37 108 -60 20 -24 22 -35 5 -25 -6 4 -8
3 -5 -3 4 -6 0 -14 -9 -17 -9 -4 -12 -11 -8 -18 5 -8 -2 -6 -17 3 -17 12 -30
14 -42 8 -13 -8 -16 -6 -11 8 5 15 3 14 -13 -3 -10 -12 -26 -24 -36 -27 -15
-6 -16 -4 -7 13 14 25 42 40 77 40 15 0 35 5 43 10 12 8 9 10 -10 6 -14 -3
-41 -7 -61 -11 -21 -3 -42 -11 -48 -19 -6 -7 -21 -12 -33 -11 -13 1 -35 -7
-51 -17 -23 -17 -32 -18 -63 -8 -19 7 -46 9 -60 6 -19 -5 -24 -3 -18 5 5 9 -2
11 -29 6 -20 -3 -39 -1 -42 4 -4 5 -20 16 -37 25 -16 9 -27 11 -24 5 4 -6 2
-11 -3 -11 -6 0 -18 16 -26 36 -18 43 -18 47 -5 39 6 -3 7 1 4 9 -3 9 -2 16 3
16 10 0 42 -51 40 -63 -1 -5 14 -17 33 -27 41 -21 102 -18 138 7 14 10 34 24
46 30 16 10 17 13 5 13 -9 0 -28 -9 -41 -20 -29 -22 -95 -35 -133 -26 -32 8
-33 26 0 26 14 0 25 4 25 8 0 4 -16 6 -35 4 -20 -2 -35 0 -35 6 0 6 8 8 18 6
9 -2 44 11 77 31 33 19 56 35 50 35 -5 0 -28 -11 -50 -25 -46 -28 -81 -31
-112 -10 -48 34 -69 -13 -33 -72 10 -18 15 -35 10 -38 -11 -7 -40 34 -40 56 0
9 -7 20 -16 23 -11 4 -14 13 -11 28 4 15 3 18 -5 10 -6 -6 -16 -8 -22 -6 -17
7 -58 -36 -52 -53 3 -8 6 -18 6 -23 0 -13 84 -20 92 -7 5 8 8 7 8 -5 0 -9 6
-18 13 -21 6 -2 -4 -3 -23 -2 -19 1 -39 -1 -45 -4 -21 -11 -69 -10 -83 1 -13
10 -14 10 -8 1 4 -8 2 -13 -8 -13 -20 0 -29 17 -14 24 7 4 -10 4 -38 2 l-52
-5 8 33 c15 66 32 73 51 22 21 -57 84 -56 84 2 0 36 -12 44 -17 10 -2 -15 -9
-22 -20 -22 -10 1 -15 -3 -12 -10 3 -6 -2 -2 -10 8 -16 19 -22 46 -10 46 3 0
15 -5 27 -12 20 -10 21 -10 8 5 -9 11 -10 17 -2 17 6 0 11 17 11 39 0 22 3 46
6 55 8 20 38 21 58 1 11 -11 17 -12 22 -3 6 10 -21 41 -45 50 -5 2 -11 12 -15
24 -8 27 38 74 56 56 9 -9 9 -12 -2 -13 -8 0 -4 -5 9 -10 19 -8 21 -12 11 -24
-11 -13 -10 -14 4 -9 9 3 16 12 16 20 0 20 91 24 98 4 6 -16 22 -11 22 7 0 9
-3 14 -6 11 -3 -4 -17 0 -30 7 -17 8 -37 10 -61 5 -27 -6 -40 -5 -51 6 -8 8
-20 13 -28 10 -7 -3 -15 0 -18 7 -2 7 -5 5 -5 -5 -1 -9 -7 -18 -13 -20 -7 -3
-13 -22 -13 -46 0 -23 -3 -38 -8 -33 -10 10 -16 330 -7 336 3 2 12 -17 19 -43
8 -31 15 -42 20 -33 7 10 13 10 29 2 11 -6 27 -9 34 -7 7 3 42 7 78 10 77 7
129 18 189 39 25 9 48 14 53 11 4 -3 8 -1 8 5 0 5 14 12 30 16 17 4 47 23 68
43 36 35 38 40 32 83 -6 51 -29 93 -60 109 -11 6 -44 14 -73 17 -57 6 -107 30
-107 50 0 7 -4 13 -10 13 -5 0 -10 15 -10 34 0 19 -9 53 -19 76 -11 24 -17 50
-14 59 3 10 1 12 -4 6 -9 -12 -38 -13 -49 -2 -4 4 -14 7 -21 7 -10 0 -11 -5
-4 -17z m-59 -278 c-12 -13 -34 -29 -50 -35 -37 -15 -73 -66 -82 -115 -3 -22
-4 9 -1 70 5 112 10 125 49 125 11 0 25 5 32 12 9 9 12 9 12 -2 0 -9 5 -8 15
6 13 16 16 17 25 4 8 -12 10 -10 12 10 1 14 3 8 5 -14 3 -29 -1 -44 -17 -61z
m1206 70 c35 -23 78 -86 93 -136 7 -24 17 -58 22 -75 5 -17 9 -50 9 -73 0 -35
-3 -42 -16 -37 -10 4 -14 1 -12 -6 5 -13 -3 -25 -42 -63 -34 -35 -19 -41 17
-7 l30 28 1 -86 c0 -47 -2 -80 -4 -74 -3 6 -15 9 -27 7 -17 -3 -27 4 -42 32
l-20 36 -44 -41 c-49 -46 -66 -51 -57 -15 9 35 -39 132 -74 150 -18 10 -28 22
-28 37 1 38 -40 130 -72 163 -23 24 -27 34 -18 43 7 7 8 12 2 12 -5 0 -15 -5
-22 -12 -8 -8 -15 -8 -26 2 -47 38 47 41 116 3 28 -15 45 -29 40 -31 -6 -2
-20 2 -31 8 -12 6 -21 8 -21 6 0 -3 18 -14 41 -25 22 -11 36 -14 30 -7 -6 7
-8 15 -5 19 3 3 -4 10 -15 17 -45 24 -13 107 53 136 36 16 88 12 122 -11z
m-320 -135 c18 -12 47 -42 64 -68 l31 -47 -48 -7 c-39 -6 -50 -5 -58 9 -5 9
-25 34 -44 55 -25 29 -39 37 -54 32 -13 -4 -17 -2 -13 5 5 7 1 8 -9 4 -14 -5
-9 -13 24 -43 42 -38 50 -65 31 -101 -8 -13 -7 -19 0 -19 6 0 14 10 19 22 8
22 9 22 24 -9 9 -17 26 -34 37 -38 24 -8 26 -23 5 -32 -21 -7 -45 -56 -45 -90
0 -26 -1 -26 -17 -10 -14 13 -18 34 -18 81 0 35 -3 59 -7 53 -11 -18 -10 -95
2 -118 12 -22 -2 -26 -20 -4 -10 12 -16 11 -40 -7 -16 -11 -35 -18 -43 -15 -8
3 -18 3 -22 -1 -14 -14 -30 -6 -36 18 -5 17 -6 14 -4 -12 3 -37 2 -38 -29 -38
-24 0 -36 6 -44 23 -6 12 -11 16 -11 9 -1 -7 -6 -10 -11 -7 -17 10 -1 94 26
144 13 24 24 52 24 63 0 45 69 128 107 128 12 0 37 9 55 20 42 25 82 25 124 0z
m-57 -67 c33 -40 75 -122 67 -130 -2 -3 -17 19 -31 49 -15 29 -41 68 -58 86
-17 17 -26 32 -20 32 6 0 25 -17 42 -37z m164 -93 c5 -21 -7 -28 -18 -10 -3 6
-10 10 -16 10 -5 0 -1 -9 9 -19 45 -51 45 -51 7 -51 -19 0 -35 -4 -35 -10 0
-5 -6 -10 -14 -10 -16 0 -46 -58 -46 -89 0 -37 22 -70 59 -85 l36 -14 -25 -10
c-39 -15 -58 8 -84 101 -11 37 9 83 45 104 34 20 36 32 9 56 -35 29 -24 39 51
46 9 0 19 -8 22 -19z m45 -83 c-5 -6 23 -37 31 -33 12 8 11 -99 -2 -115 -35
-45 -98 -45 -142 -1 -33 33 -33 81 -1 119 20 23 32 28 69 28 27 0 43 4 39 10
-3 6 -2 7 2 3 4 -3 6 -8 4 -11z m66 -131 c-3 -15 -8 -25 -11 -23 -2 3 -1 17 3
31 3 15 8 25 11 23 2 -3 1 -17 -3 -31z m-39 -56 c-10 -11 -22 -20 -28 -20 -5
0 1 9 14 20 31 25 37 25 14 0z m-1271 -58 c-8 -33 -10 -36 -23 -28 -6 4 -6 16
1 36 12 36 31 29 22 -8z m1203 32 c-3 -3 -12 -4 -19 -1 -8 3 -5 6 6 6 11 1 17
-2 13 -5z m-1143 -92 c-1 -7 -2 -21 -2 -32 -1 -11 -9 -23 -17 -27 -20 -7 -55
24 -48 43 3 8 0 14 -6 14 -6 0 -11 4 -11 9 0 5 19 8 43 7 25 -1 42 -7 41 -14z
m906 -11 c3 -1 -8 -12 -25 -25 -26 -21 -28 -26 -17 -47 l11 -24 -5 25 c-6 33
26 56 56 40 21 -11 26 -35 10 -45 -5 -3 -10 0 -10 8 0 7 -6 14 -14 14 -11 0
-12 -4 -3 -21 7 -12 12 -22 13 -24 0 -1 21 -5 45 -8 32 -4 40 -2 29 5 -8 6
-24 11 -35 12 -11 0 -15 3 -8 5 7 3 11 11 9 17 -1 7 -1 9 1 5 3 -5 27 -8 53
-8 101 0 69 -47 -40 -59 l-74 -8 -38 35 c-40 36 -44 46 -28 86 8 23 26 28 70
17z m-780 -86 c17 -20 4 -35 -31 -35 -24 0 -29 4 -29 25 0 20 5 25 24 25 13 0
29 -7 36 -15z m930 -145 c-9 -18 -8 -20 13 -20 14 0 31 8 38 18 11 14 11 15
-1 5 -28 -25 -39 -16 -28 23 5 20 7 42 4 50 -3 8 -2 14 2 14 4 0 17 -21 30
-48 12 -26 29 -58 36 -70 8 -13 11 -33 7 -45 -4 -18 -7 -14 -12 18 -6 39 -6
39 -8 -12 -1 -62 -16 -70 -25 -14 -3 22 -10 43 -16 46 -6 3 -6 -5 0 -22 24
-76 21 -89 -26 -150 -56 -72 -88 -98 -139 -112 -69 -19 -81 -15 -93 28 -15 47
-15 98 -2 106 6 4 8 10 5 15 -3 5 17 34 44 64 27 30 52 65 56 78 13 42 24 49
46 27 10 -10 27 -19 37 -19 12 0 10 4 -8 13 -17 9 -27 23 -30 47 -5 33 -3 36
35 51 l40 17 3 -44 c2 -24 -2 -52 -8 -64z m-805 80 c3 -5 -3 -10 -15 -10 -12
0 -18 5 -15 10 3 6 10 10 15 10 5 0 12 -4 15 -10z m712 -22 c10 -8 10 -13 -2
-24 -10 -10 -42 -14 -117 -14 -78 -1 -99 -3 -85 -11 11 -6 53 -9 98 -7 l80 3
-6 -25 c-3 -14 -19 -41 -34 -60 -25 -32 -34 -35 -85 -38 -54 -3 -56 -2 -56 23
0 20 -5 25 -25 25 -14 0 -25 5 -25 11 0 6 9 9 20 6 24 -6 26 9 6 75 -8 25 -13
48 -11 50 8 8 231 -4 242 -14z m-922 -8 c52 0 106 5 122 10 23 8 25 8 13 -2
-9 -7 -14 -21 -12 -30 6 -29 -34 -40 -135 -36 -76 2 -97 6 -107 21 -18 23 -30
22 -49 -5 -11 -17 -18 -20 -27 -12 -8 9 -8 15 3 25 7 8 12 19 10 25 -2 6 3 11
12 11 8 0 15 -4 15 -9 0 -4 7 -8 16 -8 14 0 14 3 4 15 -11 14 -10 14 14 5 15
-5 69 -10 121 -10z m524 -16 c47 10 89 18 94 19 12 3 37 -79 37 -121 0 -22 6
-34 18 -38 9 -3 25 -10 34 -15 10 -5 36 -9 58 -9 25 0 39 -4 35 -10 -9 -14
-82 -13 -87 1 -2 7 -41 14 -99 17 -112 5 -136 17 -118 56 8 16 9 30 3 35 -5 5
-53 11 -106 13 -58 2 -90 0 -81 -6 12 -7 13 -10 2 -16 -8 -5 -17 -2 -25 7 -14
20 -128 31 -138 14 -5 -7 6 -11 33 -12 55 -2 58 -3 68 -13 5 -5 3 -6 -4 -2 -7
4 -13 3 -13 -2 0 -10 93 -7 183 6 51 8 57 7 51 -7 -3 -9 -9 -24 -12 -35 -4
-16 -12 -18 -71 -12 -36 4 -110 7 -163 7 l-98 0 0 45 c0 31 5 46 15 51 9 3 15
13 14 22 -1 9 -1 21 0 27 1 7 50 2 144 -14 140 -25 143 -25 226 -8z m-19 22
c-20 -19 -65 -32 -55 -16 7 11 41 28 60 29 5 1 3 -5 -5 -13z m786 -41 c29 -31
32 -40 27 -73 -10 -61 -18 -76 -98 -165 -96 -107 -137 -139 -195 -148 -25 -4
-83 -16 -129 -27 -54 -13 -99 -18 -125 -14 -23 3 -57 5 -76 4 -19 -1 -59 1
-87 4 -48 5 -53 8 -53 29 0 26 -15 41 -24 26 -4 -5 -2 -12 4 -16 6 -4 8 -11 4
-16 -3 -5 -1 -16 6 -24 8 -10 8 -19 0 -34 -9 -18 -14 -19 -32 -10 -17 9 -20 9
-15 -4 4 -11 -5 -15 -46 -18 -114 -6 -222 -4 -222 6 -1 6 -11 36 -23 69 -13
32 -21 60 -20 61 2 1 31 5 65 8 l63 5 -3 -38 c-1 -22 -6 -42 -10 -46 -15 -16
-6 -30 23 -32 16 -1 41 -7 55 -12 41 -16 85 -13 85 6 0 9 5 12 12 8 7 -5 8 -3
3 5 -4 7 -18 11 -31 8 -13 -2 -21 0 -18 5 3 5 29 6 57 3 l52 -5 -40 14 c-60
22 -72 19 -84 -15 -15 -43 -31 -28 -20 18 11 49 11 61 -1 43 -5 -8 -10 -27
-10 -42 0 -15 -4 -29 -8 -32 -14 -8 -12 44 3 81 21 49 18 55 -5 13 -11 -19
-19 -45 -20 -58 0 -15 -4 -21 -12 -16 -7 4 -8 3 -4 -4 4 -7 1 -12 -8 -12 -8 0
-18 5 -22 12 -4 7 -3 8 4 4 12 -7 29 40 18 51 -4 4 13 26 36 50 24 24 35 41
26 37 -10 -3 -18 -10 -18 -15 0 -5 -6 -9 -14 -9 -8 0 -18 -10 -22 -22 l-7 -23
-10 23 c-13 30 6 51 55 58 30 5 45 0 94 -32 31 -21 64 -39 73 -40 22 -3 102
-32 124 -45 16 -9 17 -8 8 10 -11 19 -8 20 46 19 83 -1 182 21 223 48 19 13
54 46 78 74 49 57 142 210 142 234 0 17 45 45 74 46 10 0 34 -16 52 -35z
m-606 -17 c0 -5 -7 -8 -15 -8 -10 0 -15 10 -15 27 0 26 1 26 15 7 8 -10 15
-22 15 -26z m-1124 -154 c5 -43 -7 -24 -20 31 -5 22 -4 27 4 19 6 -6 13 -28
16 -50z m789 46 l100 -7 -105 -3 c-58 -1 -109 -1 -115 0 -5 1 -32 4 -58 5 -27
2 -51 6 -54 9 -8 8 102 6 232 -4z m-165 -21 c22 -7 20 -8 -12 -6 -21 2 -34 -1
-31 -6 3 -6 42 -7 92 -3 194 15 421 19 421 6 0 -8 -22 -11 -75 -8 -61 2 -75 0
-77 -12 0 -8 -2 -20 -2 -27 -1 -6 -4 -14 -7 -18 -11 -11 -48 -14 -54 -4 -4 5
-12 9 -18 9 -8 0 -7 -3 2 -9 7 -5 10 -14 7 -20 -10 -16 -45 -14 -62 4 -9 8
-34 15 -57 15 -72 1 -19 17 73 23 47 2 79 3 73 0 -7 -3 -13 -9 -13 -14 0 -6 8
-5 20 1 12 7 17 16 13 27 -5 12 -3 14 7 8 8 -5 11 -4 7 2 -4 7 -25 7 -59 2
-29 -5 -102 -13 -163 -19 l-110 -10 -25 25 c-21 22 -23 27 -10 35 17 11 26 11
60 -1z m-358 -74 c3 -45 10 -71 21 -83 17 -16 17 -15 2 20 -19 47 -19 48 5 48
16 0 20 -7 22 -35 2 -57 2 -59 16 -73 6 -7 12 -25 12 -39 0 -29 -6 -28 -12 1
-1 10 -19 35 -39 55 -55 55 -81 171 -38 171 3 0 9 -29 11 -65z m33 -3 c-9 -9
-25 11 -25 31 1 21 1 21 15 -3 7 -14 12 -27 10 -28z m795 38 c0 -6 -28 -10
-62 -11 -43 0 -57 -3 -43 -8 11 -5 40 -6 65 -4 25 3 61 5 80 4 81 -1 80 -1 80
-36 0 -18 7 -51 15 -74 l14 -41 -72 -2 c-107 -3 -128 0 -172 26 -22 12 -47 21
-57 19 -9 -2 -19 1 -23 6 -4 7 10 11 41 11 34 0 60 -8 95 -30 60 -37 64 -31 7
10 -36 26 -49 30 -109 30 -37 0 -71 4 -74 10 -3 5 15 20 40 32 38 19 46 27 42
45 -4 22 -2 23 64 23 39 0 69 -4 69 -10z m130 0 c0 -5 -16 -10 -35 -10 -19 0
-35 5 -35 10 0 6 16 10 35 10 19 0 35 -4 35 -10z m-811 -51 c15 -43 14 -49 -5
-42 -11 4 -14 13 -9 32 5 20 4 23 -5 15 -6 -7 -14 -38 -17 -71 -4 -46 -2 -63
10 -75 15 -15 13 -28 -4 -28 -13 0 -29 62 -29 112 0 84 37 119 59 57z m256 7
c96 -9 125 -15 125 -27 0 -13 -38 -11 -150 8 -68 11 -100 20 -100 29 0 10 6
11 23 5 12 -5 58 -12 102 -15z m-163 -3 c8 -10 19 -27 23 -38 8 -19 9 -19 13
3 2 16 9 22 18 18 8 -3 54 -11 102 -17 113 -16 129 -30 32 -30 -116 0 -150 -3
-150 -15 0 -7 17 -8 53 -3 73 11 147 11 147 0 0 -12 -36 -21 -83 -21 -24 0
-40 -5 -43 -15 -8 -21 -21 -19 -27 5 -3 11 -10 20 -17 20 -6 0 -8 -4 -5 -10 5
-9 -3 -11 -30 -10 -3 0 -16 -12 -30 -27 -30 -35 -52 -22 -31 19 13 25 10 77
-9 121 -5 11 -3 17 7 17 8 0 22 -8 30 -17z m-80 -91 c5 -36 0 -52 -17 -52 -15
0 -25 22 -25 56 0 36 36 33 42 -4z m182 -175 c-55 -66 -73 -57 -44 22 25 65
26 94 3 89 -11 -2 -28 -29 -44 -67 l-27 -64 -1 62 c0 41 4 63 12 65 6 2 26 7
42 13 29 8 31 7 58 -40 l28 -48 -27 -32z m14 98 c-3 -3 -9 2 -12 12 -6 14 -5
15 5 6 7 -7 10 -15 7 -18z m20 -40 c-3 -3 -9 2 -12 12 -6 14 -5 15 5 6 7 -7
10 -15 7 -18z m252 -15 c0 -5 -10 -10 -22 -9 -22 0 -22 1 -3 9 11 5 21 9 23 9
1 1 2 -3 2 -9z"/>
<path d="M630 1406 c0 -31 6 -34 13 -6 3 11 1 23 -4 26 -5 3 -9 -6 -9 -20z"/>
<path d="M1901 1442 c0 -13 -6 -32 -12 -44 -6 -11 -8 -22 -5 -25 9 -9 27 49
23 71 -4 19 -4 19 -6 -2z"/>
<path d="M1795 1329 c20 -18 33 -34 30 -37 -3 -3 -14 3 -25 13 -11 10 -20 16
-20 13 0 -3 20 -22 44 -42 l45 -36 -25 44 c-14 24 -36 51 -49 60 -39 25 -39
19 0 -15z"/>
<path d="M1881 1319 c0 -13 4 -33 9 -44 7 -14 8 -8 3 20 -7 46 -13 59 -12 24z"/>
<path d="M1907 1165 c9 -19 18 -33 21 -31 4 5 -26 66 -33 66 -3 0 3 -16 12
-35z"/>
<path d="M1931 1104 c0 -11 3 -14 6 -6 3 7 2 16 -1 19 -3 4 -6 -2 -5 -13z"/>
<path d="M2011 984 c0 -11 3 -14 6 -6 3 7 2 16 -1 19 -3 4 -6 -2 -5 -13z"/>
<path d="M1470 1056 c0 -8 4 -17 9 -20 5 -4 7 3 4 14 -6 23 -13 26 -13 6z"/>
<path d="M1386 997 c3 -10 9 -15 12 -12 3 3 0 11 -7 18 -10 9 -11 8 -5 -6z"/>
<path d="M1670 1131 c0 -5 5 -13 10 -16 6 -3 10 -2 10 4 0 5 -4 13 -10 16 -5
3 -10 2 -10 -4z"/>
<path d="M1667 1052 c-25 -28 -22 -84 6 -110 23 -22 71 -30 81 -14 2 4 -10 6
-28 4 -37 -4 -54 11 -60 55 -4 38 12 59 55 71 l34 10 -36 1 c-23 1 -42 -6 -52
-17z"/>
<path d="M1717 1023 c-11 -11 -17 -13 -17 -5 0 7 -4 12 -10 12 -5 0 -10 -12
-10 -27 0 -17 3 -23 8 -16 4 7 18 14 30 16 12 2 28 10 35 17 9 11 7 11 -7 0
-18 -14 -19 -13 -13 3 8 21 6 21 -16 0z"/>
<path d="M1696 972 c-2 -4 -1 -14 4 -22 7 -12 12 -12 22 -2 9 9 8 12 -6 12 -9
0 -14 5 -11 10 3 6 4 10 1 10 -3 0 -7 -4 -10 -8z"/>
<path d="M1750 970 c0 -5 5 -10 10 -10 6 0 10 5 10 10 0 6 -4 10 -10 10 -5 0
-10 -4 -10 -10z"/>
<path d="M511 757 c2 -1 12 -9 22 -16 15 -12 17 -12 11 3 -3 9 -13 16 -22 16
-8 0 -13 -1 -11 -3z"/>
<path d="M833 553 c32 -2 81 -2 110 0 29 2 3 3 -58 3 -60 0 -84 -1 -52 -3z"/>
<path d="M1158 553 c18 -2 45 -2 60 0 15 2 0 4 -33 4 -33 0 -45 -2 -27 -4z"/>
<path d="M753 484 c3 -3 22 -6 42 -6 20 0 39 3 42 6 4 3 -15 6 -42 6 -27 0
-46 -3 -42 -6z"/>
<path d="M985 470 c3 -5 23 -10 43 -9 30 0 33 2 17 9 -28 12 -67 12 -60 0z"/>
<path d="M1168 433 c18 -2 45 -2 60 0 15 2 0 4 -33 4 -33 0 -45 -2 -27 -4z"/>
<path d="M888 73 c23 -2 59 -2 80 0 20 2 1 4 -43 4 -44 0 -61 -2 -37 -4z"/>
<path d="M1000 326 c0 -2 7 -7 16 -10 8 -3 12 -2 9 4 -6 10 -25 14 -25 6z"/>
<path d="M2003 1655 c0 -22 2 -30 4 -17 2 12 2 30 0 40 -3 9 -5 -1 -4 -23z"/>
<path d="M2058 1654 c-2 -19 0 -37 4 -40 4 -3 8 13 8 35 0 51 -6 53 -12 5z"/>
<path d="M2120 1623 c0 -120 36 -128 44 -11 5 62 -6 101 -17 61 -4 -17 -5 -17
-6 0 0 9 -5 17 -11 17 -6 0 -10 -29 -10 -67z m28 -29 c0 -25 -3 -33 -10 -26
-9 9 -4 62 6 62 2 0 4 -16 4 -36z"/>
<path d="M2425 1679 c-4 -5 -4 -13 -1 -16 3 -4 6 0 6 8 0 11 2 11 10 -1 6 -9
10 -10 10 -3 0 17 -17 25 -25 12z"/>
<path d="M2734 1650 c0 -33 4 -40 21 -39 11 0 14 3 8 6 -7 2 -13 20 -13 39 0
19 -4 34 -9 34 -5 0 -8 -18 -7 -40z"/>
<path d="M261 1623 c1 -32 4 -46 6 -30 2 15 8 25 13 22 4 -3 7 3 5 12 -2 10
-4 26 -4 36 -1 9 -5 17 -11 17 -6 0 -9 -25 -9 -57z"/>
<path d="M2480 1660 c0 -5 5 -10 11 -10 5 0 7 5 4 10 -3 6 -8 10 -11 10 -2 0
-4 -4 -4 -10z"/>
<path d="M2895 1660 c26 -11 35 -12 35 -2 0 4 -12 8 -27 9 -24 1 -25 1 -8 -7z"/>
<path d="M2558 1641 c4 -10 1 -13 -11 -8 -9 3 -19 2 -22 -4 -4 -5 -10 -7 -15
-4 -13 8 -32 -51 -25 -76 5 -14 2 -25 -6 -31 -11 -7 -11 -11 -1 -15 9 -3 12
-76 12 -313 l0 -309 -35 -63 c-51 -93 -66 -173 -63 -335 1 -76 -2 -162 -6
-190 -5 -37 -4 -53 3 -53 6 0 11 8 12 18 0 9 2 33 5 52 2 19 3 82 2 140 -1 58
-1 116 -2 130 0 81 38 199 83 252 19 24 28 37 18 29 -21 -17 -22 -9 -2 29 32
61 86 73 213 46 38 -8 62 -10 62 -4 0 6 11 7 24 4 14 -3 27 -2 30 2 6 11 -254
25 -278 16 -11 -4 -16 -1 -16 10 0 19 12 20 171 16 90 -2 118 1 124 11 5 8 5
11 0 7 -19 -18 -34 31 -36 117 -2 72 -3 81 -8 45 -5 -30 -9 -39 -12 -25 -6 21
-1 -46 7 -106 l5 -36 -72 2 c-61 2 -74 5 -80 21 -5 14 -8 15 -8 4 -1 -10 -12
-17 -32 -18 -17 -1 -40 -7 -50 -13 -18 -9 -19 -4 -19 131 0 137 1 141 20 135
14 -4 18 -2 15 7 -4 10 9 12 59 10 61 -3 65 -5 69 -30 l4 -27 2 28 c1 27 3 28
44 25 36 -3 43 -7 46 -28 1 -14 8 -28 14 -32 6 -3 10 -42 10 -90 0 -45 2 -62
4 -35 3 30 9 47 17 47 11 0 10 10 -3 48 -9 26 -20 50 -25 53 -4 4 -3 16 3 27
11 20 83 47 161 60 34 5 34 6 9 13 -27 7 -75 0 -136 -19 -26 -8 -33 -8 -33 3
0 21 -28 26 -149 24 -74 -1 -119 -6 -127 -14 -9 -8 -12 -66 -12 -201 0 -208
-2 -226 -11 -174 -5 27 -7 619 -2 653 1 4 9 7 19 7 9 0 26 7 36 15 11 8 28 15
37 15 10 0 20 3 22 8 3 4 -12 7 -33 7 -28 0 -36 -3 -32 -14z m32 -321 c-8 -5
-10 -10 -4 -10 5 0 14 3 20 8 5 4 48 6 95 4 80 -3 87 -5 91 -25 4 -22 4 -22
-106 -13 -61 5 -114 14 -118 20 -5 7 -8 4 -8 -6 0 -24 -16 -30 -17 -7 -1 12 7
24 20 29 30 12 45 12 27 0z"/>
<path d="M2940 1651 c0 -6 4 -13 10 -16 6 -3 7 1 4 9 -7 18 -14 21 -14 7z"/>
<path d="M515 1640 c3 -5 8 -10 11 -10 2 0 4 5 4 10 0 6 -5 10 -11 10 -5 0 -7
-4 -4 -10z"/>
<path d="M815 1633 c18 -44 17 -53 -2 -53 -25 0 -35 10 -24 24 6 7 4 16 -5 24
-12 11 -14 9 -14 -7 0 -34 11 -51 34 -51 38 0 46 12 31 48 -8 17 -17 32 -21
32 -3 0 -3 -8 1 -17z"/>
<path d="M2352 1625 c0 -16 2 -22 5 -12 2 9 2 23 0 30 -3 6 -5 -1 -5 -18z"/>
<path d="M232 1615 c0 -16 2 -22 5 -12 2 9 2 23 0 30 -3 6 -5 -1 -5 -18z"/>
<path d="M2660 1631 c0 -7 -11 -9 -27 -6 -16 2 -35 0 -43 -5 -10 -7 9 -9 60
-9 41 1 66 4 55 6 -11 3 -26 10 -32 15 -9 7 -13 7 -13 -1z"/>
<path d="M2900 1630 c-8 -5 -13 -10 -10 -11 3 0 13 -2 22 -4 11 -2 15 2 11 11
-6 16 -4 16 -23 4z"/>
<path d="M116 1615 c4 -8 1 -15 -6 -15 -9 0 -9 -4 -2 -12 5 -7 10 -37 11 -67
1 -90 11 -71 11 22 0 50 -4 87 -10 87 -5 0 -7 -7 -4 -15z"/>
<path d="M490 1611 c0 -11 5 -23 10 -26 12 -7 40 12 40 27 0 5 -7 2 -16 -6
-21 -21 -27 -20 -21 4 3 11 1 20 -4 20 -5 0 -9 -9 -9 -19z"/>
<path d="M180 1610 c0 -5 5 -10 10 -10 6 0 10 5 10 10 0 6 -4 10 -10 10 -5 0
-10 -4 -10 -10z"/>
<path d="M754 1575 c2 -38 6 -49 17 -46 8 2 28 7 44 11 l30 6 -32 5 c-19 3
-30 1 -26 -4 3 -5 0 -8 -8 -5 -8 3 -17 22 -21 44 -6 36 -6 35 -4 -11z"/>
<path d="M2790 1610 c19 -13 30 -13 30 0 0 6 -10 10 -22 10 -19 0 -20 -2 -8
-10z"/>
<path d="M2527 1593 c-4 -3 -7 -12 -7 -20 0 -10 28 -13 130 -13 80 0 130 4
130 10 0 6 -49 10 -126 10 -81 0 -123 4 -119 10 7 11 2 13 -8 3z"/>
<path d="M186 1581 c-4 -7 -5 -15 -2 -18 9 -9 19 4 14 18 -4 11 -6 11 -12 0z"/>
<path d="M2352 1560 c0 -19 2 -27 5 -17 2 9 2 25 0 35 -3 9 -5 1 -5 -18z"/>
<path d="M2840 1574 c0 -3 11 -9 25 -14 15 -6 25 -17 25 -30 0 -11 4 -20 9
-20 13 0 0 50 -13 51 -6 0 -2 4 9 8 15 7 11 9 -17 9 -21 0 -38 -2 -38 -4z"/>
<path d="M286 1545 c4 -8 8 -15 10 -15 2 0 4 7 4 15 0 8 -4 15 -10 15 -5 0 -7
-7 -4 -15z"/>
<path d="M2420 1549 c0 -5 5 -7 10 -4 6 3 10 8 10 11 0 2 -4 4 -10 4 -5 0 -10
-5 -10 -11z"/>
<path d="M2950 1546 c0 -8 4 -17 9 -20 5 -4 7 3 4 14 -6 23 -13 26 -13 6z"/>
<path d="M181 1534 c0 -11 3 -14 6 -6 3 7 2 16 -1 19 -3 4 -6 -2 -5 -13z"/>
<path d="M2559 1523 c5 -26 6 -26 9 -5 2 15 10 22 26 22 20 0 24 -7 30 -46 3
-26 11 -53 17 -60 9 -11 7 -14 -10 -14 -12 0 -20 4 -16 9 3 5 1 12 -5 16 -5 3
-10 22 -10 41 0 21 -4 33 -10 29 -6 -4 -8 -10 -5 -15 3 -5 1 -11 -4 -14 -5 -3
-4 -23 2 -46 10 -38 13 -40 48 -40 l37 0 -10 40 c-6 22 -15 40 -20 40 -6 0 -7
7 -4 16 13 34 -3 54 -43 54 -36 0 -38 -1 -32 -27z"/>
<path d="M2917 1529 c7 -7 15 -10 18 -7 3 3 -2 9 -12 12 -14 6 -15 5 -6 -5z"/>
<path d="M2410 1509 c0 -5 11 -9 25 -9 14 0 25 2 25 4 0 2 -11 6 -25 8 -14 3
-25 1 -25 -3z"/>
<path d="M2541 1504 c0 -11 3 -14 6 -6 3 7 2 16 -1 19 -3 4 -6 -2 -5 -13z"/>
<path d="M2670 1500 c20 -13 33 -13 25 0 -3 6 -14 10 -23 10 -15 0 -15 -2 -2
-10z"/>
<path d="M2710 1500 c0 -5 5 -10 11 -10 5 0 7 5 4 10 -3 6 -8 10 -11 10 -2 0
-4 -4 -4 -10z"/>
<path d="M2740 1500 c0 -5 5 -10 10 -10 6 0 10 5 10 10 0 6 -4 10 -10 10 -5 0
-10 -4 -10 -10z"/>
<path d="M181 1484 c0 -11 3 -14 6 -6 3 7 2 16 -1 19 -3 4 -6 -2 -5 -13z"/>
<path d="M2903 1484 c4 -10 9 -31 13 -46 3 -16 10 -28 15 -28 5 0 4 12 -1 26
-6 14 -8 29 -6 32 2 4 -3 13 -11 21 -13 12 -15 11 -10 -5z"/>
<path d="M457 1461 c-4 -17 -3 -21 5 -13 5 5 8 16 6 23 -3 8 -7 3 -11 -10z"/>
<path d="M2551 1464 c0 -11 3 -14 6 -6 3 7 2 16 -1 19 -3 4 -6 -2 -5 -13z"/>
<path d="M2954 1455 c-3 -8 -4 -20 -2 -27 3 -7 7 -1 10 15 6 29 1 36 -8 12z"/>
<path d="M90 1451 c0 -6 5 -11 10 -11 6 0 10 -9 10 -20 0 -25 -17 -26 -23 -2
-4 13 -5 11 -6 -5 -1 -17 5 -23 20 -23 17 0 20 5 17 32 -3 28 -28 55 -28 29z"/>
<path d="M291 1416 c-6 -16 -10 -34 -8 -40 6 -17 29 33 24 52 -3 13 -7 10 -16
-12z"/>
<path d="M327 1433 c-9 -9 -9 -43 1 -43 4 0 8 11 8 25 2 27 1 29 -9 18z"/>
<path d="M1505 1420 c-3 -5 -1 -10 4 -10 6 0 11 5 11 10 0 6 -2 10 -4 10 -3 0
-8 -4 -11 -10z"/>
<path d="M499 1413 c-1 -5 -1 -11 0 -15 0 -4 -6 -5 -14 -2 -7 3 -22 1 -32 -5
-15 -9 -12 -10 20 -11 30 0 37 4 37 20 0 19 -9 29 -11 13z"/>
<path d="M851 1390 c-90 -24 -166 -59 -206 -95 l-30 -27 37 26 c73 52 201 94
313 103 77 7 84 13 14 12 -30 0 -87 -9 -128 -19z"/>
<path d="M1048 1398 c5 -5 16 -8 23 -6 8 3 3 7 -10 11 -17 4 -21 3 -13 -5z"/>
<path d="M2456 1374 c-9 -8 -15 -27 -15 -42 l2 -27 4 25 c3 14 12 33 20 43 20
21 10 23 -11 1z"/>
<path d="M2522 1380 c-4 -3 -8 -11 -10 -18 -2 -10 2 -10 17 -3 10 6 104 11
210 12 105 1 194 6 197 10 5 9 -403 8 -414 -1z"/>
<path d="M396 1371 c-26 -10 -10 -19 39 -21 77 -4 95 -1 95 16 0 11 -5 14 -17
9 -22 -9 -31 -9 -68 -2 -16 3 -39 2 -49 -2z"/>
<path d="M280 1325 c-30 -13 -63 -26 -72 -29 -10 -3 -18 -11 -18 -17 0 -8 4
-8 15 1 20 16 22 14 28 -40 3 -25 6 -46 6 -47 1 -2 9 -3 19 -3 14 0 15 2 2 10
-13 9 -13 11 0 20 13 9 13 10 0 10 -10 0 -15 10 -15 30 0 39 18 42 27 4 6 -26
7 -26 5 8 -2 20 0 35 3 33 7 -4 90 32 90 40 0 11 -37 3 -90 -20z"/>
<path d="M410 1320 c-19 -11 -50 -19 -68 -20 -18 0 -31 -4 -28 -9 3 -5 15 -7
26 -4 18 5 20 0 20 -48 0 -30 3 -126 6 -215 5 -108 3 -163 -4 -168 -10 -6 -37
58 -98 229 l-27 75 -38 0 c-44 0 -50 15 -24 60 21 36 18 47 -4 18 -16 -20 -20
-44 -23 -141 -3 -114 -3 -117 17 -110 11 4 30 7 42 6 12 0 24 6 28 15 5 13 3
13 -12 1 -15 -12 -16 -12 -10 4 4 10 7 23 7 28 0 6 5 7 10 4 17 -11 11 11 -11
39 -24 30 -45 26 -28 -6 9 -17 13 -18 21 -7 7 10 8 5 3 -16 -3 -16 -13 -36
-20 -44 -12 -12 -16 -11 -24 11 -5 15 -6 41 -1 62 4 20 4 36 -1 36 -5 0 -9 5
-9 11 0 5 5 7 10 4 6 -3 10 -1 10 4 0 6 5 11 10 11 6 0 10 -7 10 -15 0 -7 6
-18 14 -22 18 -10 46 -62 46 -85 0 -9 -15 -33 -34 -52 -18 -20 -39 -50 -46
-66 -7 -16 -19 -31 -28 -33 -12 -3 -10 -5 5 -6 15 -1 27 8 37 28 9 16 12 31 9
35 -9 9 58 -5 81 -16 14 -8 17 -7 11 3 -6 8 -4 10 4 5 7 -5 10 -10 7 -13 -3
-3 2 -19 10 -35 16 -31 11 -115 -5 -89 -4 6 -9 -12 -10 -40 -1 -29 -3 -55 -6
-57 -7 -7 22 -32 37 -32 7 0 19 9 26 20 7 12 8 20 2 20 -5 0 -10 7 -10 15 0 9
9 15 21 15 18 0 20 5 16 27 -7 37 1 53 28 53 13 0 26 7 29 16 9 22 -3 32 -14
14 -6 -10 -10 75 -10 231 0 245 0 246 23 257 12 6 18 11 12 11 -5 0 -26 -8
-45 -19z m-9 -52 c0 -13 1 -111 2 -218 2 -163 0 -192 -11 -172 -7 15 -12 68
-13 136 -1 61 -2 145 -4 186 -1 41 0 78 2 83 9 15 23 6 24 -15z m-166 -138 c3
-5 1 -10 -4 -10 -6 0 -11 5 -11 10 0 6 2 10 4 10 3 0 8 -4 11 -10z m52 -155
c13 -40 5 -49 -31 -35 -29 11 -34 28 -11 36 8 4 15 12 15 20 0 27 17 14 27
-21z m103 -139 c0 -24 -16 -43 -27 -32 -8 8 6 56 17 56 6 0 10 -11 10 -24z
m-40 -40 c0 -8 -4 -16 -10 -18 -5 -1 -12 -23 -15 -48 l-5 -45 12 44 c14 48 38
67 38 31 0 -12 -4 -18 -10 -15 -5 3 -12 -7 -16 -22 -10 -47 -14 -54 -24 -48
-14 9 -13 76 3 108 13 29 27 36 27 13z"/>
<path d="M935 1309 c-27 -5 -56 -12 -63 -14 -7 -2 -16 -5 -20 -6 -4 0 -11 -4
-17 -9 -5 -4 -25 -11 -42 -15 -18 -3 -33 -10 -33 -15 0 -4 -14 -13 -32 -19
-32 -11 -78 -48 -78 -62 0 -3 29 9 65 28 106 56 200 84 310 92 90 6 97 8 72
19 -32 14 -90 14 -162 1z"/>
<path d="M34 1292 c2 -22 28 -62 40 -62 5 0 -1 11 -14 26 -19 19 -21 27 -11
33 10 7 10 9 -2 14 -9 3 -14 -1 -13 -11z"/>
<path d="M2445 1280 c3 -5 8 -10 11 -10 2 0 4 5 4 10 0 6 -5 10 -11 10 -5 0
-7 -4 -4 -10z"/>
<path d="M2877 1267 c-32 -11 -54 -23 -49 -26 5 -3 16 -26 26 -51 14 -40 16
-41 10 -10 -3 19 -7 41 -7 49 -2 14 97 54 107 43 3 -3 6 0 6 6 0 16 -23 13
-93 -11z"/>
<path d="M930 1233 c-29 -21 -44 -24 -88 -21 -29 3 -49 1 -45 -3 23 -22 132
-7 159 22 26 28 14 29 -26 2z"/>
<path d="M2630 1249 c0 -5 9 -9 20 -9 11 0 20 2 20 4 0 2 -9 6 -20 9 -11 3
-20 1 -20 -4z"/>
<path d="M2945 1250 c-19 -8 -19 -9 3 -9 12 -1 22 4 22 9 0 6 -1 10 -2 9 -2 0
-12 -4 -23 -9z"/>
<path d="M2444 1225 c-7 -28 4 -286 12 -294 3 -3 4 68 3 157 -1 89 -3 162 -5
162 -2 0 -6 -11 -10 -25z"/>
<path d="M2599 1245 c-1 -5 -1 -26 -1 -45 1 -19 -2 -27 -4 -17 -8 25 -26 21
-22 -5 2 -13 9 -22 16 -20 9 1 8 -7 -3 -34 -17 -42 -19 -64 -5 -64 5 0 7 6 4
13 -3 8 1 19 8 25 10 8 12 1 9 -34 -2 -28 1 -44 8 -44 7 0 10 13 8 35 -2 19 0
32 4 29 5 -3 9 -12 9 -21 0 -9 2 -14 5 -11 3 3 3 24 -1 47 -5 31 -9 39 -16 29
-6 -8 -8 6 -5 43 3 31 1 62 -4 70 -5 8 -9 10 -10 4z"/>
<path d="M2877 1188 c8 -29 19 -55 23 -58 4 -3 4 -14 0 -25 -7 -18 -8 -17 -15
8 -4 15 -9 26 -12 23 -2 -2 1 -22 8 -44 6 -23 8 -49 4 -59 -6 -14 -11 -7 -21
32 l-12 50 -1 -59 -1 -58 23 14 c13 9 24 30 28 50 3 18 9 39 13 46 4 7 3 18
-2 25 -6 7 -15 29 -20 50 -10 35 -9 39 11 47 20 8 19 9 -10 9 l-32 1 16 -52z"/>
<path d="M2631 1193 c2 -31 3 -33 6 -10 2 15 9 27 14 27 6 0 7 5 4 10 -13 22
-25 8 -24 -27z"/>
<path d="M2550 1143 c0 -42 3 -74 6 -70 9 9 11 147 2 147 -5 0 -8 -34 -8 -77z"/>
<path d="M2686 1195 c-3 -8 -1 -15 4 -15 6 0 10 7 10 15 0 8 -2 15 -4 15 -2 0
-6 -7 -10 -15z"/>
<path d="M2970 1185 c0 -9 -7 -28 -16 -43 l-16 -27 21 25 c18 22 29 60 16 60
-3 0 -5 -7 -5 -15z"/>
<path d="M79 1179 c-1 -8 -1 -17 0 -21 0 -5 -3 -8 -9 -8 -5 0 -10 5 -10 10 0
18 -29 10 -44 -12 -18 -25 -21 -53 -6 -43 6 3 10 0 10 -7 0 -10 3 -9 11 2 9
12 10 11 6 -7 -3 -13 -1 -23 3 -23 13 0 30 -59 19 -65 -5 -4 -10 -3 -11 2 0 4
-2 13 -3 18 -2 6 -4 17 -5 25 -2 13 -28 -98 -29 -126 -1 -5 5 -18 12 -27 10
-15 11 -9 9 37 -4 51 -2 55 20 58 17 2 24 10 26 31 2 15 -1 27 -7 27 -15 0
-25 60 -12 73 8 8 11 2 12 -23 1 -25 4 -18 10 24 5 33 7 62 4 64 -3 3 -6 -1
-6 -9z m-29 -38 c0 -12 -26 -32 -33 -25 -6 7 14 33 26 34 4 0 7 -4 7 -9z"/>
<path d="M2650 1165 c0 -8 4 -15 10 -15 5 0 7 7 4 15 -4 8 -8 15 -10 15 -2 0
-4 -7 -4 -15z"/>
<path d="M2703 1163 c9 -2 23 -2 30 0 6 3 -1 5 -18 5 -16 0 -22 -2 -12 -5z"/>
<path d="M2752 1130 c0 -14 2 -19 5 -12 2 6 2 18 0 25 -3 6 -5 1 -5 -13z"/>
<path d="M2655 1115 c2 -16 7 -46 10 -65 4 -27 10 -36 25 -36 13 0 16 4 10 10
-6 6 -11 33 -12 61 l-1 50 -7 -50 c-7 -49 -7 -50 -9 -10 -1 22 -6 47 -11 55
-7 11 -9 7 -5 -15z"/>
<path d="M2931 1100 c0 -8 4 -33 9 -55 6 -28 6 -42 -3 -47 -22 -14 -27 -8 -17
20 l10 27 -19 -24 c-31 -40 -16 -54 30 -30 22 11 45 17 51 13 7 -4 8 -3 4 4
-4 7 -13 12 -21 12 -8 0 -20 21 -28 48 -8 26 -15 40 -16 32z"/>
<path d="M2972 1066 c1 -37 2 -38 5 -8 2 17 8 32 14 32 5 0 9 4 9 8 0 5 -7 9
-15 9 -11 0 -15 -11 -13 -41z"/>
<path d="M2700 1095 c0 -7 30 -13 34 -7 3 4 -4 9 -15 9 -10 1 -19 0 -19 -2z"/>
<path d="M2751 1084 c0 -11 3 -14 6 -6 3 7 2 16 -1 19 -3 4 -6 -2 -5 -13z"/>
<path d="M2720 1046 c0 -14 5 -26 10 -26 6 0 10 9 10 19 0 11 -4 23 -10 26 -6
4 -10 -5 -10 -19z"/>
<path d="M2552 1034 c-19 -21 -11 -33 15 -23 15 5 21 14 17 24 -8 19 -15 19
-32 -1z"/>
<path d="M2756 1023 c-6 -14 -5 -15 5 -6 7 7 10 15 7 18 -3 3 -9 -2 -12 -12z"/>
<path d="M2848 973 c6 -2 18 -2 25 0 6 3 1 5 -13 5 -14 0 -19 -2 -12 -5z"/>
<path d="M2985 970 c-4 -6 -11 -8 -16 -5 -5 4 -9 -3 -9 -14 0 -11 4 -23 10
-26 6 -3 7 1 4 10 -4 10 -2 14 8 10 9 -4 14 2 14 15 0 23 -2 24 -11 10z"/>
<path d="M151 935 c1 -40 1 -40 11 -12 7 21 7 32 -1 40 -8 8 -11 0 -10 -28z"/>
<path d="M1440 950 c-8 -5 -12 -11 -10 -14 3 -2 14 2 24 10 22 15 10 19 -14 4z"/>
<path d="M2863 931 c-3 -13 -12 -18 -24 -16 -28 6 -23 -1 12 -19 22 -11 37
-13 48 -6 13 8 12 9 -7 10 -16 0 -22 5 -20 17 4 23 28 29 28 6 0 -15 2 -15 9
-3 13 19 5 30 -21 30 -11 0 -22 -8 -25 -19z"/>
<path d="M261 908 c9 -7 14 -18 12 -25 -2 -6 1 -14 6 -18 6 -3 11 -17 11 -31
0 -17 -4 -23 -12 -18 -7 4 -8 3 -4 -4 4 -7 4 -12 -1 -12 -4 0 -7 -30 -5 -67 2
-49 0 -64 -7 -53 -6 8 -11 23 -11 33 0 9 -5 17 -11 17 -5 0 -7 -5 -3 -12 4 -7
3 -8 -4 -4 -13 8 -5 36 12 36 6 0 5 4 -3 9 -22 14 -24 44 -3 37 13 -4 12 -2
-3 9 -17 14 -18 17 -5 25 8 5 11 10 6 10 -6 0 -5 5 2 12 7 7 12 19 11 28 0 9
-4 6 -9 -7 -5 -13 -16 -23 -24 -23 -8 0 -18 -5 -22 -12 -4 -7 -3 -8 4 -4 11 6
18 -29 13 -58 -1 -5 4 -13 11 -17 10 -7 10 -9 0 -9 -7 0 -15 7 -18 15 -9 22
-23 18 -17 -5 3 -11 9 -20 14 -20 5 0 8 -3 8 -7 -3 -21 2 -33 15 -33 8 0 18
-9 21 -20 3 -11 11 -20 16 -20 6 0 7 -4 4 -10 -3 -5 -7 -24 -9 -42 -2 -18 -7
-42 -11 -53 -8 -20 -8 -20 8 0 9 11 17 32 17 46 0 15 7 32 15 39 17 14 21 35
5 25 -13 -8 -13 128 0 141 12 12 16 66 6 82 -4 6 -17 17 -29 22 -19 10 -20 9
-6 -2z"/>
<path d="M1512 905 c-30 -16 -41 -28 -22 -24 8 2 26 -3 40 -10 25 -14 25 -14
7 7 -14 15 -15 21 -5 25 7 2 11 6 8 9 -3 3 -15 -1 -28 -7z"/>
<path d="M1862 877 c-11 -19 -23 -45 -27 -58 -7 -22 -6 -23 10 -8 9 9 17 22
19 30 1 8 8 25 15 37 20 38 6 36 -17 -1z"/>
<path d="M2545 899 c-4 -6 -5 -12 -2 -15 2 -3 7 2 10 11 7 17 1 20 -8 4z"/>
<path d="M2927 818 c5 -113 13 -129 13 -25 0 64 3 76 18 80 16 4 16 5 0 6 -10
0 -18 8 -18 16 0 8 -4 15 -8 15 -5 0 -7 -41 -5 -92z"/>
<path d="M753 879 c-6 -6 -23 -11 -37 -11 -20 0 -24 -5 -24 -27 1 -18 9 -31
24 -38 28 -13 30 -10 8 12 -20 20 -3 45 32 45 15 0 24 6 24 15 0 18 -12 19
-27 4z"/>
<path d="M2975 859 c-13 -24 -15 -54 -12 -144 2 -72 0 -118 -6 -124 -8 -8 -2
-11 19 -11 19 0 24 3 16 8 -10 7 -12 40 -9 138 3 71 8 137 12 147 12 29 -4 19
-20 -14z"/>
<path d="M2817 841 c-77 -85 -127 -245 -148 -468 -6 -68 -9 -128 -6 -135 2 -7
7 28 11 77 21 267 67 424 151 523 46 53 40 56 -8 3z"/>
<path d="M2905 860 c3 -5 8 -10 11 -10 2 0 4 5 4 10 0 6 -5 10 -11 10 -5 0 -7
-4 -4 -10z"/>
<path d="M876 826 c-4 -15 -5 -31 -1 -34 3 -3 5 2 5 12 0 9 4 15 8 12 4 -2 14
5 22 17 12 20 12 21 -2 9 -13 -10 -17 -10 -20 0 -3 7 -8 0 -12 -16z"/>
<path d="M773 825 c4 -8 2 -17 -4 -21 -6 -3 -8 -12 -5 -20 6 -17 -39 -20 -49
-4 -4 6 -11 8 -16 5 -5 -4 -9 -1 -9 5 0 7 -6 8 -17 2 -12 -7 -21 -5 -32 7 -9
9 -13 12 -8 7 4 -6 7 -25 7 -44 l0 -35 20 26 c20 25 21 25 60 10 48 -19 54
-15 59 40 1 5 5 6 10 2 5 -3 13 -1 16 5 4 6 1 9 -7 8 -7 -2 -12 3 -10 10 1 6
-3 12 -9 12 -6 0 -9 -7 -6 -15z"/>
<path d="M927 833 c-4 -3 2 -13 14 -21 26 -18 32 -12 9 10 -9 10 -20 15 -23
11z"/>
<path d="M2711 824 c0 -11 3 -14 6 -6 3 7 2 16 -1 19 -3 4 -6 -2 -5 -13z"/>
<path d="M827 813 c-4 -3 -7 -17 -7 -29 0 -16 -7 -24 -22 -26 -18 -3 -19 -5
-6 -15 12 -10 20 -7 44 19 16 18 20 26 10 18 -18 -14 -19 -13 -12 13 6 27 5
32 -7 20z"/>
<path d="M905 780 c3 -5 14 -10 23 -10 15 0 15 2 2 10 -20 13 -33 13 -25 0z"/>
<path d="M855 753 c-18 -14 -18 -15 -2 -9 10 3 28 6 40 6 18 0 19 2 7 10 -19
13 -21 12 -45 -7z"/>
<path d="M612 736 c7 -8 15 -12 17 -11 5 6 -10 25 -20 25 -5 0 -4 -6 3 -14z"/>
<path d="M2676 723 c-6 -14 -5 -15 5 -6 7 7 10 15 7 18 -3 3 -9 -2 -12 -12z"/>
<path d="M1005 720 c-25 -11 1 -11 35 0 20 6 21 8 5 8 -11 0 -29 -3 -40 -8z"/>
<path d="M8 703 c7 -3 16 -2 19 1 4 3 -2 6 -13 5 -11 0 -14 -3 -6 -6z"/>
<path d="M2933 650 c0 -36 2 -50 4 -32 2 17 2 47 0 65 -2 17 -4 3 -4 -33z"/>
<path d="M1149 679 l-24 -20 30 17 c39 24 40 24 28 24 -6 0 -21 -9 -34 -21z"/>
<path d="M2656 685 c-9 -26 -7 -32 5 -12 6 10 9 21 6 23 -2 3 -7 -2 -11 -11z"/>
<path d="M6 675 c-3 -8 -1 -15 4 -15 6 0 10 7 10 15 0 8 -2 15 -4 15 -2 0 -6
-7 -10 -15z"/>
<path d="M377 676 c-3 -8 -1 -16 4 -18 6 -2 14 -19 19 -38 7 -32 8 -33 9 -7 1
15 6 27 12 27 5 0 7 5 3 11 -4 8 -9 7 -16 -2 -5 -9 -6 -4 -2 14 5 20 2 27 -9
27 -8 0 -17 -6 -20 -14z"/>
<path d="M1199 679 c-10 -6 -4 -9 19 -9 17 0 32 2 32 4 0 9 -39 13 -51 5z"/>
<path d="M0 618 c0 -17 3 -28 7 -25 9 10 10 57 1 57 -4 0 -8 -14 -8 -32z"/>
<path d="M342 594 c-1 -23 -9 -47 -17 -54 -13 -11 -14 -8 -10 21 5 30 4 31 -5
10 -5 -13 -19 -36 -30 -51 -11 -15 -20 -34 -20 -42 0 -7 9 2 20 20 11 17 22
32 25 32 8 0 0 -33 -14 -58 -7 -13 -10 -31 -8 -40 4 -15 5 -15 6 1 0 10 8 29
17 42 9 14 13 25 9 25 -3 0 3 13 15 30 15 21 20 40 17 67 l-4 38 -1 -41z"/>
<path d="M291 605 c-1 -11 -13 -38 -26 -60 -14 -22 -25 -44 -25 -50 0 -5 14
14 31 42 17 29 28 61 26 70 -4 15 -5 15 -6 -2z"/>
<path d="M1745 580 c-3 -5 -1 -10 4 -10 6 0 11 5 11 10 0 6 -2 10 -4 10 -3 0
-8 -4 -11 -10z"/>
<path d="M2928 544 c-3 -22 -1 -40 4 -42 4 -2 8 -11 9 -20 0 -11 2 -12 6 -4 7
17 24 15 39 -5 12 -16 13 -15 14 10 0 25 -3 27 -37 28 -21 0 -32 3 -25 6 14 5
16 32 3 52 -6 9 -10 1 -13 -25z"/>
<path d="M2976 541 c-19 -21 -12 -28 13 -12 7 5 12 14 9 21 -2 7 -10 4 -22 -9z"/>
<path d="M5 520 c-3 -6 1 -7 9 -4 18 7 21 14 7 14 -6 0 -13 -4 -16 -10z"/>
<path d="M618 503 c6 -2 18 -2 25 0 6 3 1 5 -13 5 -14 0 -19 -2 -12 -5z"/>
<path d="M2916 478 c-2 -7 -10 -35 -16 -63 -7 -27 -21 -63 -30 -80 -10 -16
-28 -61 -41 -99 -13 -39 -42 -107 -65 -153 -23 -46 -38 -83 -34 -83 4 0 10 9
13 20 7 27 35 25 40 -2 2 -13 4 -6 4 14 0 22 -4 35 -10 31 -6 -4 -8 0 -5 8 53
127 48 121 91 117 37 -4 38 -3 18 10 -11 8 -21 23 -21 33 0 16 3 15 25 -6 17
-17 34 -25 57 -24 l33 2 -35 6 c-27 5 -35 11 -33 26 1 11 0 14 -3 7 -5 -10 -9
-10 -20 -1 -12 9 -12 15 -2 28 8 10 5 9 -10 -3 -12 -11 -22 -17 -22 -13 0 14
43 104 57 120 9 9 11 17 5 17 -6 0 -8 10 -4 23 5 19 7 18 14 -13 5 -19 11 -42
14 -50 3 -8 8 -39 10 -68 3 -38 1 -51 -8 -46 -6 4 -8 3 -5 -3 3 -5 21 -8 39
-5 30 5 31 6 10 13 -24 9 -31 49 -8 49 8 0 18 4 21 10 3 5 0 7 -8 4 -16 -6
-60 102 -61 154 -1 34 -4 40 -10 20z m-70 -276 c-12 -11 -18 7 -10 30 l8 23 4
-23 c2 -13 1 -26 -2 -30z"/>
<path d="M35 451 c-11 -5 -23 -7 -26 -5 -4 2 -7 -12 -7 -31 0 -23 5 -35 14
-35 9 0 12 8 8 28 -5 23 -1 29 23 39 15 6 24 11 18 11 -5 0 -19 -3 -30 -7z"/>
<path d="M2943 444 c-3 -8 -1 -20 5 -26 7 -7 10 -2 9 16 -2 30 -5 32 -14 10z"/>
<path d="M2966 442 c-3 -6 3 -12 15 -15 12 -3 19 -1 16 6 -5 15 -24 20 -31 9z"/>
<path d="M2966 402 c-4 -13 -5 -26 -2 -29 3 -4 6 2 6 13 0 15 2 16 9 4 6 -8 7
-27 4 -42 -3 -15 -1 -28 4 -28 5 0 9 20 9 44 0 25 -3 43 -7 40 -4 -2 -9 2 -12
8 -2 7 -7 3 -11 -10z"/>
<path d="M2101 344 c0 -11 3 -14 6 -6 3 7 2 16 -1 19 -3 4 -6 -2 -5 -13z"/>
<path d="M155 304 c-68 -14 -102 -19 -137 -22 -12 -2 -16 -10 -13 -32 2 -17 7
-34 10 -39 3 -5 -1 -11 -7 -14 -7 -2 -11 -7 -8 -10 3 -3 68 8 145 24 197 41
238 49 240 47 2 -5 27 -61 41 -93 l13 -31 -37 0 c-20 0 -99 -12 -174 -27 -122
-24 -141 -25 -180 -13 -44 13 -44 13 -46 -12 -1 -14 1 -23 4 -20 3 4 18 3 34
-2 15 -4 32 -4 36 0 5 5 32 11 59 14 28 3 42 3 33 0 -10 -3 -18 -9 -18 -14 0
-4 -34 -11 -76 -15 -41 -4 -73 -9 -71 -12 11 -11 139 -8 144 3 2 7 19 15 38
18 26 5 45 0 90 -25 31 -17 58 -29 61 -27 2 2 -31 23 -74 46 -42 23 -71 42
-64 42 7 0 22 -5 32 -10 14 -7 41 -6 92 5 40 9 85 18 100 21 22 5 29 1 41 -22
27 -54 29 -72 10 -77 -14 -4 -12 -5 5 -6 23 -1 23 1 18 62 -2 34 -5 66 -5 71
-1 5 -8 2 -18 -5 -15 -13 -15 -12 -4 8 10 20 7 27 -24 60 -19 20 -35 43 -35
50 0 6 -8 17 -17 22 -10 6 -13 11 -6 11 14 0 5 40 -9 40 -6 0 -8 -7 -4 -15 7
-18 6 -18 -69 0 -70 17 -61 17 -150 -1z m70 -42 c-6 -7 -35 18 -35 31 0 5 9 2
20 -8 11 -10 18 -20 15 -23z m46 17 c7 -11 9 -11 9 -1 0 7 4 11 10 7 15 -9 -1
-37 -18 -30 -8 3 -19 0 -24 -7 -7 -10 -8 -9 -5 2 2 8 -3 23 -11 33 -14 16 -14
17 7 14 12 -2 27 -10 32 -18z m-117 -18 c18 -15 18 -15 12 7 -9 28 -5 28 23
-2 l23 -25 -22 6 c-17 5 -21 3 -15 -6 6 -10 3 -11 -14 -2 -16 9 -21 9 -21 -1
0 -34 -90 -6 -97 30 -4 17 1 15 32 -14 15 -14 30 -22 34 -19 3 4 -2 12 -11 19
-10 7 -15 16 -12 19 4 3 13 -1 21 -9 20 -20 30 -9 12 13 -12 15 -12 16 1 8 8
-4 23 -15 34 -24z m173 14 c0 -8 -4 -15 -9 -15 -10 0 -11 14 -1 23 9 10 10 9
10 -8z m-279 -40 c12 -14 19 -25 16 -25 -14 0 -42 21 -48 35 -8 23 8 18 32
-10z m19 -161 c-3 -3 -12 -4 -19 -1 -8 3 -5 6 6 6 11 1 17 -2 13 -5z"/>
<path d="M2091 313 c-1 -6 -4 -20 -7 -30 -5 -17 -5 -17 6 0 6 10 9 23 6 30 -3
9 -5 9 -5 0z"/>
<path d="M2915 279 c-4 -6 -5 -12 -2 -15 2 -3 7 2 10 11 7 17 1 20 -8 4z"/>
<path d="M2050 202 c-38 -93 -81 -145 -147 -177 -35 -17 -45 -29 -15 -18 37
13 111 75 132 111 25 42 63 133 57 138 -2 2 -14 -22 -27 -54z"/>
<path d="M2652 200 c0 -14 2 -19 5 -12 2 6 2 18 0 25 -3 6 -5 1 -5 -13z"/>
<path d="M2376 185 c8 -37 14 -45 14 -19 0 10 -5 26 -10 34 -8 11 -9 7 -4 -15z"/>
<path d="M185 175 c17 -8 39 -14 50 -14 20 0 20 0 0 8 -11 4 -33 11 -50 14
l-30 6 30 -14z"/>
<path d="M2965 180 c-3 -5 3 -10 14 -10 12 0 21 5 21 10 0 6 -6 10 -14 10 -8
0 -18 -4 -21 -10z"/>
<path d="M350 159 c-19 -5 -48 -6 -65 -4 -28 5 -28 4 -6 -5 24 -10 83 -5 111
11 18 10 6 10 -40 -2z"/>
<path d="M2641 154 c0 -11 3 -14 6 -6 3 7 2 16 -1 19 -3 4 -6 -2 -5 -13z"/>
<path d="M2393 90 c0 -30 2 -43 4 -28 2 16 2 40 0 55 -2 16 -4 3 -4 -27z"/>
<path d="M2857 134 c-3 -3 -3 -12 0 -20 4 -11 7 -11 19 1 8 7 14 16 14 19 0 8
-25 8 -33 0z"/>
<path d="M2908 133 c7 -3 16 -2 19 1 4 3 -2 6 -13 5 -11 0 -14 -3 -6 -6z"/>
<path d="M2958 103 c5 -21 7 -23 10 -9 2 10 0 22 -6 28 -6 6 -7 0 -4 -19z"/>
<path d="M2830 56 c0 -33 2 -57 4 -55 9 9 13 88 5 101 -5 8 -9 -10 -9 -46z"/>
<path d="M2888 103 c-2 -5 -1 -28 3 -53 l6 -45 1 53 c2 48 -2 63 -10 45z"/>
<path d="M425 89 c-4 -6 -14 -8 -22 -5 -8 3 -11 2 -8 -4 3 -5 -3 -14 -14 -19
-24 -14 -44 -14 -36 -2 3 6 -3 9 -14 8 -26 -2 -18 -13 19 -26 18 -6 28 -6 25
-1 -4 6 4 10 17 10 19 0 20 -2 8 -11 -12 -9 -12 -10 3 -5 10 3 31 6 45 7 23 1
22 2 -10 11 l-38 10 23 19 c12 10 19 18 15 19 -4 0 -10 -5 -13 -11z"/>
<path d="M2806 73 c10 -40 14 -41 14 -5 0 18 -5 32 -10 32 -6 0 -8 -11 -4 -27z"/>
<path d="M2606 55 c-9 -26 -7 -32 5 -12 6 10 9 21 6 23 -2 3 -7 -2 -11 -11z"/>
<path d="M1310 47 c0 -7 17 -21 38 -30 20 -9 28 -11 18 -4 -11 6 -28 20 -38
30 -13 12 -18 13 -18 4z"/>
<path d="M906 32 c-3 -5 0 -9 7 -10 7 0 28 -3 47 -7 29 -4 32 -3 17 6 -10 6
-21 8 -24 5 -3 -3 -14 -1 -24 4 -10 6 -20 6 -23 2z"/>
<path d="M1054 27 c-4 -7 -4 -9 1 -5 4 4 14 3 22 -3 8 -7 13 -8 13 -1 0 15
-28 23 -36 9z"/>
<path d="M1137 29 c7 -7 15 -10 18 -7 3 3 -2 9 -12 12 -14 6 -15 5 -6 -5z"/>
<path d="M420 15 c-19 -7 -28 -13 -20 -13 8 0 31 6 50 13 19 7 28 13 20 13 -8
0 -31 -6 -50 -13z"/>
<path d="M30 10 c0 -6 7 -10 15 -10 8 0 15 2 15 4 0 2 -7 6 -15 10 -8 3 -15 1
-15 -4z"/>
<path d="M137 3 c18 -2 50 -2 70 0 21 2 7 4 -32 4 -38 0 -55 -2 -38 -4z"/>
<path d="M813 3 c9 -2 25 -2 35 0 9 3 1 5 -18 5 -19 0 -27 -2 -17 -5z"/>
</g>
</svg>
